<?xml version="1.0" standalone="no"?>
<!DOCTYPE svg PUBLIC "-//W3C//DTD SVG 20010904//EN"
 "http://www.w3.org/TR/2001/REC-SVG-20010904/DTD/svg10.dtd">
<svg version="1.0" xmlns="http://www.w3.org/2000/svg"
 width="1279.000000pt" height="1280.000000pt" viewBox="0 0 1279.000000 1280.000000"
 preserveAspectRatio="xMidYMid meet">
<metadata>
Created by potrace 1.15, written by Peter Selinger 2001-2017
</metadata>
<g transform="translate(0.000000,1280.000000) scale(0.100000,-0.100000)"
fill="#041228" stroke="none">
<path d="M6305 12787 c-120 -40 -245 -152 -353 -317 -183 -280 -377 -779 -516
-1334 -19 -76 -38 -142 -43 -146 -4 -3 -44 -14 -88 -24 -192 -43 -442 -123
-675 -216 -209 -83 -580 -273 -727 -372 l-41 -28 -109 61 c-837 470 -1398 666
-1714 600 -116 -24 -204 -101 -250 -218 -19 -49 -23 -77 -23 -183 0 -265 111
-604 354 -1085 107 -211 162 -310 309 -557 14 -24 14 -30 1 -50 -181 -285
-373 -683 -488 -1018 -36 -103 -106 -352 -123 -435 -7 -33 -17 -65 -23 -72 -6
-6 -85 -32 -176 -57 -502 -139 -988 -329 -1245 -486 -240 -147 -375 -314 -375
-463 0 -221 259 -449 745 -655 236 -100 602 -221 889 -293 89 -23 162 -42 164
-43 1 -2 20 -72 41 -157 108 -430 297 -884 524 -1261 42 -71 77 -131 77 -134
0 -4 -38 -75 -83 -158 -488 -881 -662 -1440 -537 -1722 38 -87 123 -155 230
-184 115 -32 361 -3 581 66 301 95 737 302 1106 525 l116 70 61 -40 c397 -254
926 -474 1416 -588 l74 -18 57 -200 c225 -788 465 -1296 708 -1497 81 -68 144
-93 236 -93 111 0 188 38 292 143 238 240 494 830 669 1538 l27 112 61 12
c408 84 984 318 1366 553 36 22 81 49 100 60 l35 19 110 -62 c280 -160 665
-349 890 -438 392 -154 682 -198 860 -131 79 29 153 103 186 184 21 54 24 74
23 210 0 135 -3 163 -33 280 -85 337 -322 856 -583 1278 -26 43 -48 84 -48 90
0 7 15 35 33 62 19 28 73 120 120 205 193 345 354 753 444 1122 l38 157 130
32 c402 98 899 275 1155 411 277 147 451 306 495 453 107 355 -428 705 -1579
1034 l-200 56 -18 75 c-117 482 -307 952 -546 1347 l-80 132 29 45 c129 204
358 640 448 856 69 165 132 348 166 490 25 99 29 136 29 260 1 128 -2 152 -22
201 -28 69 -90 143 -146 171 -146 75 -381 63 -681 -33 -271 -86 -658 -263
-1032 -472 -105 -59 -194 -107 -197 -107 -3 0 -70 39 -148 86 -368 220 -822
408 -1247 515 -85 21 -155 40 -156 41 -1 2 -23 80 -49 173 -161 571 -353 1052
-523 1310 -88 132 -197 242 -285 284 -78 38 -168 49 -233 28z m565 -2957 c553
-82 1018 -260 1465 -561 842 -567 1396 -1477 1509 -2479 75 -670 -37 -1322
-332 -1925 -661 -1351 -2123 -2121 -3617 -1904 -1427 207 -2579 1283 -2889
2699 -60 276 -80 502 -73 820 14 574 148 1079 419 1573 543 991 1534 1660
2648 1786 158 18 175 19 455 16 213 -2 301 -8 415 -25z"/>
</g>
</svg>
