<svg id="eP2TmGCgaUz1" xmlns="http://www.w3.org/2000/svg" xmlns:xlink="http://www.w3.org/1999/xlink" viewBox="0 0 640 480" shape-rendering="geometricPrecision" text-rendering="geometricPrecision">
	<path id="eP2TmGCgaUz2" d="M319.702443,145.875371C260.426044,145.875371,215.634127,189.836243,215.639436,244.787334C215.634127,300.617642,266.573226,343.699297,319.702442,343.699297C371.075319,343.699297,424.088822,300.617642,423.765449,244.787334C423.765449,188.077808,373.018215,145.940813,319.702443,145.875371Z" transform="matrix(1 0 0 1 0.811255 -23.333328)" fill="none" stroke="rgb(63,87,135)" stroke-width="3" />
	<path id="eP2TmGCgaUz3" d="M301.670788,145.875371C232.123308,145.875371,179.570099,197.392021,179.576327,261.787834C179.570099,327.21398,239.335639,377.700297,301.670787,377.700297C361.945267,377.700297,424.144653,327.21398,423.765247,261.787834C423.765247,195.331355,364.224817,145.952061,301.670788,145.875371Z" transform="matrix(1 0 0 1 18.328444 -40.333828)" fill="none" stroke="rgb(63,87,135)" stroke-width="3" />
	<path id="eP2TmGCgaUz4" d="M251.700086,475.217601C336.643322,475.217601,424.299275,403.494182,423.764589,310.546486C423.764589,216.135046,339.855831,145.98432,251.700087,145.875371" transform="matrix(1 0 0 1 68.298816 -89.09248)" fill="none" stroke="rgb(63,87,135)" stroke-width="3" />
	<path id="eP2TmGCgaUz5" d="M251.700092,414.294622C326.417757,414.294622,403.521579,355.838874,403.051259,280.084997C403.051259,203.138144,329.24354,145.964166,251.700093,145.875371" transform="matrix(1 0 0 1 51.96746 -58.404815)" fill="none" stroke="rgb(63,87,135)" stroke-width="3" />
	<line id="eP2TmGCgaUz6" x1="-0.257739" y1="-39.57674" x2="0.257739" y2="39.576741" transform="matrix(1 0 0 1 320.256641 425.701861)" fill="none" stroke="rgb(63,87,135)" stroke-width="3" />
	<line id="eP2TmGCgaUz7" x1="88.174757" y1="22.152623" x2="-88.174757" y2="-22.152623" transform="matrix(1 0 0 1 231.825243 34.301609)" fill="none" stroke="rgb(63,87,135)" stroke-width="3" />
	<line id="eP2TmGCgaUz8" x1="0" y1="-80.95024" x2="32" y2="80.95024" transform="matrix(1 0 0 1 143.650486 93.099226)" fill="none" stroke="rgb(63,87,135)" stroke-width="3" />
	<g id="eP2TmGCgaUz9" transform="matrix(1 0 0 1 0 0.000001)">
		<line id="eP2TmGCgaUz10" x1="-42.758936" y1="28.260493" x2="42.758936" y2="-28.260493" transform="matrix(1 0 0 1 363.273316 193.193513)" fill="none" stroke="rgb(63,87,135)" stroke-width="3" />
		<line id="eP2TmGCgaUz11" x1="0" y1="-49.455982" x2="0" y2="49.455982" transform="matrix(1 0 0 1 319.998902 270.909988)" fill="none" stroke="rgb(63,87,135)" stroke-width="3" />
		<line id="eP2TmGCgaUz12" x1="-43.016674" y1="77.716475" x2="43.016675" y2="-77.716474" transform="matrix(1 0 0 1 363.015576 242.649495)" fill="none" stroke="rgb(63,87,135)" stroke-width="3" />
	</g>
	<line id="eP2TmGCgaUz13" x1="44.086829" y1="23.70227" x2="-39.567908" y2="-32.818716" transform="matrix(1 0 0 1 275.912073 197.751736)" fill="none" stroke="rgb(63,87,135)" stroke-width="3" />
	<line id="eP2TmGCgaUz14" x1="84.844043" y1="0" x2="-84.844043" y2="0" transform="matrix(1 0 0 1 321.188208 164.93302)" fill="none" stroke="rgb(63,87,135)" stroke-width="3" />
	<line id="eP2TmGCgaUz15" x1="41.956238" y1="77.716475" x2="-41.956238" y2="-77.716474" transform="matrix(1 0 0 1 278.300403 242.649495)" fill="none" stroke="rgb(63,87,135)" stroke-width="3" />
	<line id="eP2TmGCgaUz16" x1="0" y1="58.633287" x2="0" y2="-58.633287" transform="matrix(1 0 0 1 175.650486 115.416179)" fill="black" stroke="rgb(63,87,135)" stroke-width="3" />
	<line id="eP2TmGCgaUz17" x1="-64.00853" y1="-15.343832" x2="64.00853" y2="15.343832" transform="matrix(1 0 0 1 239.659016 72.126724)" fill="none" stroke="rgb(63,87,135)" stroke-width="3" />
	<line id="eP2TmGCgaUz18" x1="0" y1="-54.186448" x2="16.331356" y2="54.186448" transform="matrix(1 0 0 1 303.667546 411.092154)" fill="none" stroke="rgb(63,87,135)" stroke-width="3" />
</svg>
